<?xml version="1.0" encoding="UTF-8" standalone="no"?>
<!DOCTYPE svg PUBLIC "-//W3C//DTD SVG 1.1//EN" "http://www.w3.org/Graphics/SVG/1.1/DTD/svg11.dtd">
<svg width="100%" height="100%" viewBox="0 0 36 36" version="1.1" xmlns="http://www.w3.org/2000/svg" xmlns:xlink="http://www.w3.org/1999/xlink" xml:space="preserve" xmlns:serif="http://www.serif.com/" style="fill-rule:evenodd;clip-rule:evenodd;stroke-linejoin:round;stroke-miterlimit:2;">
    <g transform="matrix(-1,0,0,1,35.094,3)">
        <path d="M28.25,8.513C28.25,8.368 28.133,8.25 27.987,8.25L27.512,8.25C27.367,8.25 27.249,8.368 27.249,8.513L27.249,19.988C27.249,20.133 27.366,20.251 27.512,20.251L27.987,20.251C28.132,20.251 28.25,20.134 28.25,19.988L28.25,8.513Z" style="fill:rgb(255,195,88);fill-rule:nonzero;"/>
    </g>
    <g transform="matrix(-1,0,0,1,35.094,0)">
        <path d="M33.25,8.25L29.121,8.25L9.946,0.29L9.944,0.289L9.943,0.289C9.927,0.282 9.911,0.284 9.896,0.279C9.849,0.265 9.802,0.25 9.75,0.25L9.748,0.25C9.682,0.25 9.618,0.264 9.558,0.288C9.513,0.308 9.474,0.338 9.436,0.37C9.424,0.379 9.41,0.384 9.399,0.395C9.352,0.441 9.314,0.497 9.289,0.559L9.289,0.56C9.285,0.569 9.286,0.58 9.283,0.589L3.742,8.399C3.739,8.403 3.739,8.409 3.736,8.413C3.451,8.589 3.25,8.89 3.25,9.25L3.25,11.25C3.25,11.802 3.698,12.25 4.25,12.25L5.745,12.25L2.031,34L0.467,34C0.409,34 0.354,34.023 0.314,34.064C0.273,34.104 0.25,34.159 0.25,34.217C0.25,34.735 0.25,36 0.25,36L19.208,36L19.208,34.243C19.208,34.109 19.099,34 18.965,34C18.487,34 17.468,34 17.468,34L13.755,12.25L33.25,12.25C33.803,12.25 34.25,11.802 34.25,11.25L34.25,9.25C34.25,8.698 33.803,8.25 33.25,8.25ZM11.481,12.25L9.75,13.639L8.02,12.25L11.481,12.25ZM9.75,21.3L13.417,23.704L9.75,25.704L6.083,23.704L9.75,21.3ZM6.111,22.01L6.585,19.226L8.451,20.449L6.111,22.01ZM11.049,20.449L12.919,19.224L13.396,22.013L11.049,20.449ZM9.75,19.583L6.922,17.698L9.75,15.376L12.578,17.698L9.75,19.583ZM7.187,15.696L7.549,13.569L8.68,14.497L7.187,15.696ZM10.82,14.498L11.952,13.569L12.316,15.699L10.82,14.498ZM5.073,8.25L9.25,2.362L9.25,6.25L7.25,6.25C6.698,6.25 6.25,6.698 6.25,7.25L6.25,8.25L5.073,8.25ZM5.603,24.988L8.333,26.477L5.043,28.271L5.603,24.988ZM15.443,34L4.067,34L4.753,29.976L9.75,27.25L14.756,29.981L15.443,34ZM13.903,24.985L14.465,28.276L11.167,26.477L13.903,24.985ZM13.25,8.25L13.25,7.25C13.25,6.698 12.802,6.25 12.25,6.25L10.25,6.25L10.25,1.499L26.513,8.25L13.25,8.25ZM15.25,11.25L14.09,11.25L14.09,9.25L15.25,9.25L15.25,11.25ZM18.25,11.25L16.25,11.25L16.25,9.25L18.25,9.25L18.25,11.25ZM21.25,11.25L19.25,11.25L19.25,9.25L21.25,9.25L21.25,11.25ZM24.25,11.25L22.25,11.25L22.25,9.25L24.25,9.25L24.25,11.25ZM27.25,11.25L25.25,11.25L25.25,9.25L27.25,9.25L27.25,11.25ZM30.25,11.25L28.25,11.25L28.25,9.25L30.25,9.25L30.25,11.25ZM33.25,10.75C33.25,11.026 33.026,11.25 32.75,11.25L31.25,11.25L31.25,9.25L32.75,9.25C33.026,9.25 33.25,9.474 33.25,9.75L33.25,10.75Z" style="fill:rgb(255,195,88);fill-rule:nonzero;"/>
    </g>
    <g transform="matrix(-1,0,0,1,35.094,0)">
        <path d="M34.714,27.469C34.748,27.469 34.781,27.455 34.806,27.431C34.83,27.406 34.844,27.373 34.844,27.339C34.844,26.68 34.844,23.721 34.844,23.11C34.844,23.049 34.795,23 34.734,23C33.499,23 22.308,23 20.819,23C20.776,23 20.735,23.017 20.704,23.048C20.673,23.079 20.656,23.12 20.656,23.163C20.656,23.889 20.656,26.807 20.656,27.373C20.656,27.426 20.699,27.469 20.752,27.469C21.917,27.469 33.362,27.469 34.714,27.469Z" style="fill:rgb(29,99,237);fill-rule:nonzero;"/>
    </g>
    <g transform="matrix(-1,0,0,1,35.094,0)">
        <rect x="8" y="8" width="4" height="2" style="fill:rgb(255,195,88);"/>
    </g>
</svg>
